<mxfile host="app.diagrams.net" modified="2023-10-22T14:02:51.687Z" agent="Mozilla/5.0 (Windows NT 10.0; Win64; x64) AppleWebKit/537.36 (KHTML, like Gecko) Chrome/118.0.0.0 Safari/537.36" version="22.0.6" etag="6Uhj5D3M6ZOh8lUZX0XO" type="github">
  <diagram name="Halaman-1" id="2TTiO9So8yGy4ZI0Mm30">
    <mxGraphModel>
      <root>
        <mxCell id="0" />
        <mxCell id="1" parent="0" />
      </root>
    </mxGraphModel>
  </diagram>
</mxfile>
